<svg xmlns="http://www.w3.org/2000/svg" width="600" height="300" viewBox="0 0 600 300"><rect width="100%" height="100%" fill="#DDDDDD"/><path fill="#999999" d="M120.58 157.525q-1.74 0-2.67-.98-.93-.99-.93-2.71v-7.45h-1.36q-.26 0-.45-.17-.18-.17-.18-.51v-1.27l2.15-.35.67-3.64q.07-.26.25-.41.18-.14.47-.14h1.66v4.2h3.56v2.29h-3.56v7.22q0 .63.31.98.3.35.84.35.29 0 .5-.07.2-.07.35-.15.15-.08.26-.15.12-.07.24-.07.14 0 .23.07t.2.21l.96 1.56q-.7.59-1.61.89-.91.3-1.89.3Zm8.44-19.53v7.41q.78-.73 1.71-1.18.94-.46 2.2-.46 1.09 0 1.94.37.84.37 1.41 1.04.56.67.86 1.6.29.93.29 2.05v8.49h-3.21v-8.49q0-1.22-.56-1.89-.56-.67-1.7-.67-.84 0-1.56.38-.73.37-1.38 1.02v9.65h-3.21v-19.32h3.21Zm11.56 5.98h3.22v13.34h-3.22v-13.34Zm3.66-3.89q0 .42-.17.78-.17.37-.45.64t-.65.44q-.38.16-.81.16-.41 0-.78-.16-.38-.17-.65-.44t-.43-.64q-.17-.36-.17-.78 0-.42.17-.8.16-.38.43-.65t.65-.44q.37-.16.78-.16.43 0 .81.16.37.17.65.44t.45.65q.17.38.17.8Zm11.7 5.33-.73 1.16q-.13.21-.27.29-.14.09-.36.09-.24 0-.5-.13-.27-.13-.62-.29-.35-.17-.8-.3-.45-.13-1.06-.13-.95 0-1.49.41-.54.4-.54 1.05 0 .43.28.72t.74.51q.46.23 1.05.4.58.18 1.19.38.6.21 1.19.48.58.27 1.04.68.47.4.75.98.27.57.27 1.37 0 .97-.34 1.78t-1.02 1.4q-.68.59-1.67.93-1 .33-2.3.33-.68 0-1.34-.13-.66-.12-1.26-.34-.61-.22-1.12-.52-.51-.3-.9-.65l.74-1.22q.14-.22.34-.34.19-.12.49-.12t.57.17q.26.17.61.37.35.19.83.36.47.17 1.2.17.57 0 .98-.14.41-.13.68-.36.26-.22.39-.51.12-.29.12-.6 0-.47-.28-.77-.28-.3-.74-.52-.46-.22-1.05-.4-.59-.17-1.21-.38t-1.21-.49q-.59-.28-1.05-.71-.46-.43-.74-1.05-.28-.62-.28-1.51 0-.82.32-1.56.33-.74.96-1.29.63-.55 1.57-.88.94-.34 2.18-.34 1.38 0 2.51.46 1.13.45 1.88 1.19Zm8.98-1.44h3.23v13.34h-3.23v-13.34Zm3.67-3.89q0 .42-.17.78-.17.37-.45.64t-.65.44q-.38.16-.81.16-.41 0-.79-.16-.37-.17-.64-.44t-.43-.64q-.17-.36-.17-.78 0-.42.17-.8.16-.38.43-.65t.64-.44q.38-.16.79-.16.43 0 .81.16.37.17.65.44t.45.65q.17.38.17.8Zm11.7 5.33-.73 1.16q-.13.21-.27.29-.14.09-.36.09-.24 0-.5-.13-.27-.13-.62-.29-.35-.17-.8-.3-.45-.13-1.06-.13-.95 0-1.49.41-.54.4-.54 1.05 0 .43.28.72t.74.51q.46.23 1.05.4.58.18 1.19.38.6.21 1.19.48.58.27 1.04.68.47.4.74.98.28.57.28 1.37 0 .97-.34 1.78t-1.02 1.4q-.68.59-1.67.93-1 .33-2.3.33-.69 0-1.34-.13-.66-.12-1.26-.34-.61-.22-1.12-.52-.51-.3-.9-.65l.74-1.22q.14-.22.34-.34.19-.12.49-.12t.56.17q.27.17.62.37.35.19.83.36.47.17 1.2.17.57 0 .98-.14.41-.13.68-.36.26-.22.39-.51.12-.29.12-.6 0-.47-.28-.77-.28-.3-.74-.52-.46-.22-1.05-.4-.59-.17-1.21-.38t-1.21-.49q-.59-.28-1.05-.71-.46-.43-.74-1.05-.28-.62-.28-1.51 0-.82.32-1.56.33-.74.96-1.29.63-.55 1.57-.88.94-.34 2.18-.34 1.38 0 2.51.46 1.13.45 1.88 1.19Zm15.93 8.45v-2.24q-1.39.06-2.34.24-.95.17-1.52.44-.58.28-.82.64-.25.37-.25.79 0 .85.5 1.21.5.37 1.31.37.98 0 1.71-.36.72-.36 1.41-1.09Zm-6.79-7-.57-1.03q2.3-2.11 5.54-2.11 1.17 0 2.09.39.92.38 1.56 1.06.64.69.97 1.64.33.94.33 2.08v8.42h-1.46q-.45 0-.7-.14-.25-.13-.39-.55l-.28-.96q-.51.45-.99.8-.48.34-1 .58-.52.23-1.12.35-.59.13-1.3.13-.85 0-1.56-.23-.72-.23-1.24-.68-.52-.46-.8-1.13-.29-.68-.29-1.58 0-.5.17-1t.55-.96q.39-.45 1-.86.61-.4 1.5-.7.89-.3 2.07-.49 1.19-.19 2.71-.22v-.78q0-1.34-.58-1.99-.57-.64-1.65-.64-.78 0-1.29.18t-.9.41q-.39.23-.71.41-.32.18-.71.18-.34 0-.57-.17-.24-.18-.38-.41Zm22.46 1.01v5.98q.55.66 1.19.94.65.27 1.4.27.73 0 1.31-.27.59-.28 1-.83.41-.56.63-1.41.22-.86.22-2.01 0-1.17-.19-1.99-.19-.81-.54-1.32-.35-.5-.85-.74-.5-.23-1.14-.23-1 0-1.7.42t-1.33 1.19Zm-.43-3.31.26 1.23q.82-.92 1.86-1.49 1.04-.58 2.45-.58 1.09 0 1.99.46.91.45 1.56 1.32.66.86 1.02 2.13t.36 2.91q0 1.49-.41 2.77-.4 1.27-1.15 2.21-.75.93-1.81 1.46-1.06.53-2.37.53-1.12 0-1.91-.35-.79-.34-1.42-.96v5.47h-3.21v-17.7h1.97q.62 0 .81.59Zm19.04 9.3v-2.24q-1.39.06-2.34.24-.95.17-1.52.44-.58.28-.82.64-.25.37-.25.79 0 .85.5 1.21.5.37 1.31.37.98 0 1.71-.36.72-.36 1.41-1.09Zm-6.79-7-.57-1.03q2.3-2.11 5.54-2.11 1.17 0 2.09.39.92.38 1.56 1.06.64.69.97 1.64.33.94.33 2.08v8.42h-1.46q-.45 0-.7-.14-.25-.13-.39-.55l-.28-.96q-.51.45-.99.8-.48.34-1 .58-.52.23-1.11.35-.6.13-1.31.13-.85 0-1.56-.23-.72-.23-1.24-.68-.52-.46-.8-1.13-.29-.68-.29-1.58 0-.5.17-1t.55-.96q.39-.45 1-.86.61-.4 1.5-.7.89-.3 2.07-.49 1.19-.19 2.71-.22v-.78q0-1.34-.58-1.99-.57-.64-1.65-.64-.78 0-1.29.18t-.9.41q-.39.23-.71.41-.32.18-.71.18-.34 0-.57-.17-.24-.18-.38-.41Zm23.34-1.24-.85 1.17q-.14.18-.28.29-.13.1-.39.1-.25 0-.49-.15-.23-.15-.55-.33-.33-.19-.78-.34-.45-.15-1.11-.15-.84 0-1.48.3-.64.31-1.06.88-.42.57-.63 1.39-.21.81-.21 1.83 0 1.07.23 1.9.23.83.65 1.4.43.57 1.04.86.62.29 1.38.29.77 0 1.24-.19.48-.19.8-.41.33-.23.57-.42.24-.19.54-.19.39 0 .58.3l.93 1.17q-.54.62-1.16 1.05-.62.42-1.29.67-.67.26-1.38.36-.71.11-1.41.11-1.24 0-2.33-.47-1.09-.46-1.91-1.34-.82-.89-1.29-2.17-.48-1.28-.48-2.92 0-1.46.42-2.72.43-1.25 1.25-2.17.81-.92 2.02-1.44 1.21-.52 2.79-.52 1.49 0 2.61.48 1.13.49 2.03 1.38Zm4.66 3.49h6.06q0-.63-.17-1.18-.18-.55-.53-.97-.35-.41-.89-.65-.54-.25-1.26-.25-1.39 0-2.19.8-.8.79-1.02 2.25Zm8.19 1.93h-8.25q.08 1.03.36 1.78.29.75.76 1.23.46.49 1.11.73.64.24 1.42.24.78 0 1.35-.18.56-.18.98-.4.43-.22.75-.41.31-.18.61-.18.41 0 .6.3l.92 1.17q-.53.62-1.19 1.05-.66.42-1.39.67-.72.26-1.47.36-.74.11-1.44.11-1.4 0-2.59-.47-1.2-.46-2.08-1.36-.89-.91-1.39-2.24-.51-1.33-.51-3.09 0-1.36.44-2.56.44-1.21 1.27-2.1.83-.89 2.01-1.41 1.19-.52 2.69-.52 1.26 0 2.33.41 1.06.4 1.83 1.17.77.78 1.2 1.9.44 1.13.44 2.57 0 .73-.16.98-.15.25-.6.25Zm6.37-13.05v7.41q.78-.73 1.72-1.18.94-.46 2.2-.46 1.09 0 1.93.37.85.37 1.41 1.04.57.67.86 1.6.29.93.29 2.05v8.49h-3.21v-8.49q0-1.22-.56-1.89-.55-.67-1.7-.67-.83 0-1.56.38-.73.37-1.38 1.02v9.65h-3.21v-19.32h3.21Zm17.36 5.77q1.48 0 2.7.48 1.21.49 2.08 1.37.86.88 1.33 2.16.47 1.27.47 2.84 0 1.59-.47 2.86-.47 1.28-1.33 2.18-.87.89-2.08 1.37-1.22.49-2.7.49-1.5 0-2.72-.49-1.22-.48-2.09-1.37-.86-.9-1.33-2.18-.48-1.27-.48-2.86 0-1.57.48-2.84.47-1.28 1.33-2.16.87-.88 2.09-1.37 1.22-.48 2.72-.48Zm0 11.27q1.66 0 2.46-1.11.8-1.12.8-3.28 0-2.16-.8-3.29t-2.46-1.13q-1.69 0-2.5 1.14-.82 1.14-.82 3.28 0 2.15.82 3.27.81 1.12 2.5 1.12Zm9.07-17.04h3.21v19.32h-3.21v-19.32Zm14.8 15.37v-5.98q-.55-.67-1.19-.94-.65-.27-1.39-.27-.73 0-1.31.27-.59.27-1 .83-.42.55-.64 1.4-.22.85-.22 2.01 0 1.17.19 1.98t.54 1.33q.35.51.86.74.5.23 1.13.23 1 0 1.7-.42t1.33-1.18Zm0-15.37h3.21v19.32h-1.97q-.63 0-.8-.59l-.27-1.28q-.81.92-1.86 1.49-1.04.58-2.43.58-1.1 0-2.01-.46-.91-.46-1.56-1.32-.66-.86-1.02-2.14-.35-1.27-.35-2.91 0-1.48.4-2.76.4-1.27 1.16-2.21.75-.93 1.8-1.46 1.06-.53 2.37-.53 1.12 0 1.91.36.79.35 1.42.94v-7.03Zm8.91 11.12h6.06q0-.63-.17-1.18-.18-.55-.53-.97-.35-.41-.89-.65-.54-.25-1.25-.25-1.4 0-2.2.8-.79.79-1.02 2.25Zm8.19 1.93h-8.25q.08 1.03.36 1.78.29.75.76 1.23.47.49 1.11.73.64.24 1.42.24.78 0 1.35-.18.56-.18.99-.4.42-.22.74-.41.32-.18.61-.18.41 0 .6.3l.93 1.17q-.54.62-1.2 1.05-.66.42-1.39.67-.72.26-1.46.36-.75.11-1.45.11-1.39 0-2.59-.47-1.2-.46-2.08-1.36-.88-.91-1.39-2.24-.51-1.33-.51-3.09 0-1.36.44-2.56.45-1.21 1.27-2.1.83-.89 2.02-1.41 1.19-.52 2.68-.52 1.26 0 2.33.41 1.06.4 1.83 1.17.77.78 1.2 1.9.44 1.13.44 2.57 0 .73-.16.98-.15.25-.6.25Zm6-6.26.19 1.51q.63-1.2 1.48-1.88.86-.69 2.03-.69.93 0 1.48.41l-.2 2.4q-.07.24-.19.33-.13.1-.33.1t-.58-.06q-.39-.07-.75-.07-.53 0-.95.16-.41.15-.75.45-.33.29-.58.7-.25.42-.48.95v8.22h-3.21v-13.34h1.89q.49 0 .69.18.19.17.26.63Zm17.33 12.53h-3.21v-10.92l-1.16-.18q-.38-.08-.61-.27-.22-.19-.22-.54v-1.31h1.99v-.99q0-1.14.34-2.05.34-.91.99-1.55.64-.64 1.56-.98.93-.33 2.08-.33.93 0 1.72.24l-.06 1.62q-.02.18-.11.29-.09.11-.24.17-.15.06-.34.08-.2.01-.42.01-.57 0-1.02.13-.45.12-.76.43-.31.3-.48.8-.16.5-.16 1.24v.89h3.47v2.29h-3.36v10.93Zm11.07-13.55q1.48 0 2.7.48 1.22.49 2.08 1.37.86.88 1.33 2.16.47 1.27.47 2.84 0 1.59-.47 2.86-.47 1.28-1.33 2.18-.86.89-2.08 1.37-1.22.49-2.7.49-1.49 0-2.71-.49-1.23-.48-2.09-1.37-.87-.9-1.34-2.18-.47-1.27-.47-2.86 0-1.57.47-2.84.47-1.28 1.34-2.16.86-.88 2.09-1.37 1.22-.48 2.71-.48Zm0 11.27q1.67 0 2.47-1.11.8-1.12.8-3.28 0-2.16-.8-3.29t-2.47-1.13q-1.69 0-2.5 1.14t-.81 3.28q0 2.15.81 3.27t2.5 1.12Zm11.87-10.25.2 1.51q.62-1.2 1.48-1.88.86-.69 2.03-.69.92 0 1.48.41l-.21 2.4q-.06.24-.19.33-.12.1-.33.1-.19 0-.58-.06-.38-.07-.75-.07-.53 0-.94.16-.42.15-.75.45-.33.29-.59.7-.25.42-.47.95v8.22h-3.21v-13.34h1.88q.5 0 .69.18.2.17.26.63Zm20.23 9.08v-2.24q-1.39.06-2.34.24-.95.17-1.52.44-.57.28-.82.64-.25.37-.25.79 0 .85.5 1.21.5.37 1.31.37.99 0 1.71-.36t1.41-1.09Zm-6.79-7-.57-1.03q2.3-2.11 5.54-2.11 1.17 0 2.09.39.93.38 1.56 1.06.64.69.97 1.64.33.94.33 2.08v8.42h-1.45q-.46 0-.71-.14-.24-.13-.39-.55l-.28-.96q-.51.45-.99.8-.48.34-1 .58-.52.23-1.11.35-.59.13-1.31.13-.84 0-1.56-.23-.71-.23-1.23-.68-.52-.46-.81-1.13-.29-.68-.29-1.58 0-.5.17-1t.56-.96q.38-.45.99-.86.61-.4 1.5-.7.89-.3 2.07-.49 1.19-.19 2.71-.22v-.78q0-1.34-.57-1.99-.57-.64-1.65-.64-.78 0-1.3.18-.51.18-.9.41-.39.23-.71.41-.32.18-.71.18-.34 0-.57-.17-.23-.18-.38-.41Zm15.72-2.3.22 1.05q.4-.4.85-.75.45-.34.95-.58.5-.24 1.07-.38.58-.14 1.25-.14 1.09 0 1.94.37.84.37 1.41 1.04t.86 1.6q.29.93.29 2.05v8.49h-3.21v-8.49q0-1.22-.56-1.89-.56-.67-1.7-.67-.83 0-1.56.38-.73.37-1.38 1.02v9.65h-3.21v-13.34h1.96q.63 0 .82.59Zm18.3-.59h3.23v13.34h-3.23v-13.34Zm3.67-3.89q0 .42-.17.78-.17.37-.45.64t-.65.44q-.38.16-.81.16-.42 0-.79-.16-.37-.17-.64-.44t-.44-.64q-.16-.36-.16-.78 0-.42.16-.8.17-.38.44-.65t.64-.44q.37-.16.79-.16.43 0 .81.16.37.17.65.44t.45.65q.17.38.17.8Zm6.05 17.23h-3.22v-13.34h1.97q.62 0 .82.59l.2.98q.36-.39.74-.71.38-.33.82-.56.43-.23.93-.37.5-.14 1.1-.14 1.26 0 2.08.69.81.68 1.21 1.81.31-.66.78-1.14.47-.47 1.03-.77.56-.3 1.19-.44.63-.15 1.27-.15 1.1 0 1.96.34.86.34 1.44.99.59.65.89 1.59.31.93.31 2.14v8.49h-3.21v-8.49q0-1.27-.56-1.92-.56-.64-1.64-.64-.49 0-.92.17-.42.17-.74.49-.32.31-.5.8-.18.48-.18 1.1v8.49h-3.22v-8.49q0-1.34-.54-1.95-.54-.61-1.58-.61-.71 0-1.31.34-.6.35-1.12.95v9.76Zm25.61-3.45v-2.24q-1.4.06-2.34.24-.95.17-1.53.44-.57.28-.82.64-.24.37-.24.79 0 .85.5 1.21.5.37 1.3.37.99 0 1.71-.36.73-.36 1.42-1.09Zm-6.79-7-.57-1.03q2.3-2.11 5.54-2.11 1.16 0 2.09.39.92.38 1.56 1.06.64.69.97 1.64.33.94.33 2.08v8.42h-1.46q-.45 0-.7-.14-.25-.13-.39-.55l-.29-.96q-.5.45-.98.8-.49.34-1 .58-.53.23-1.12.35-.59.13-1.3.13-.85 0-1.56-.23-.72-.23-1.24-.68-.52-.46-.8-1.13-.29-.68-.29-1.58 0-.5.17-1t.55-.96q.38-.45 1-.86.61-.4 1.5-.7.89-.3 2.07-.49 1.18-.19 2.71-.22v-.78q0-1.34-.58-1.99-.57-.64-1.65-.64-.78 0-1.29.18t-.91.41q-.38.23-.7.41-.32.18-.71.18-.34 0-.57-.17-.24-.18-.38-.41Zm17.81 3.46q.6 0 1.04-.17.44-.16.73-.45.3-.28.45-.68.14-.41.14-.89 0-.99-.59-1.56-.59-.58-1.77-.58-1.18 0-1.78.58-.59.57-.59 1.56 0 .47.15.87.15.41.44.7.3.29.75.45.44.17 1.03.17Zm3.63 7.59q0-.39-.24-.64-.23-.25-.63-.38-.41-.14-.95-.2-.54-.07-1.14-.1l-1.25-.06q-.64-.03-1.25-.1-.54.29-.87.7-.33.4-.33.93 0 .36.18.66.17.31.55.53.39.22 1 .34.61.13 1.49.13.9 0 1.55-.14t1.07-.38q.43-.24.62-.57.2-.33.2-.72Zm-.64-13.48h3.83v1.19q0 .57-.68.7l-1.2.23q.27.68.27 1.5 0 .99-.39 1.79-.4.8-1.1 1.36-.71.56-1.66.86-.96.31-2.06.31-.39 0-.76-.04-.36-.04-.71-.1-.62.37-.62.84 0 .4.37.59.37.19.98.27.61.08 1.39.1.78.02 1.6.08.82.07 1.6.23.78.16 1.39.51.61.35.98.96.37.6.37 1.55 0 .89-.44 1.72-.43.83-1.26 1.48-.82.65-2.02 1.05-1.21.39-2.74.39-1.51 0-2.63-.29-1.11-.29-1.86-.78-.74-.49-1.1-1.12-.37-.64-.37-1.33 0-.94.57-1.57.57-.63 1.55-1-.53-.28-.84-.73-.31-.46-.31-1.2 0-.3.11-.62.11-.31.32-.63.22-.31.54-.59.33-.28.77-.5-1.02-.54-1.59-1.45-.58-.91-.58-2.14 0-.98.39-1.78.4-.8 1.11-1.37.71-.56 1.68-.86.96-.3 2.11-.3.86 0 1.61.17.75.18 1.38.52Zm8.4 4.68h6.06q0-.63-.18-1.18-.18-.55-.53-.97-.35-.41-.89-.65-.54-.25-1.25-.25-1.39 0-2.19.8-.8.79-1.02 2.25Zm8.19 1.93H476q.08 1.03.37 1.78.28.75.75 1.23.47.49 1.11.73.65.24 1.43.24.78 0 1.34-.18.57-.18.99-.4.42-.22.74-.41.32-.18.62-.18.4 0 .59.3l.93 1.17q-.53.62-1.2 1.05-.66.42-1.38.67-.72.26-1.47.36-.75.11-1.45.11-1.39 0-2.59-.47-1.19-.46-2.08-1.36-.88-.91-1.39-2.24-.51-1.33-.51-3.09 0-1.36.45-2.56.44-1.21 1.26-2.1.83-.89 2.02-1.41 1.19-.52 2.68-.52 1.26 0 2.33.41 1.07.4 1.83 1.17.77.78 1.21 1.9.43 1.13.43 2.57 0 .73-.16.98-.15.25-.59.25Z"/></svg>